<svg width="100" height="100" viewBox="0 0 460 460" fill="none" xmlns="http://www.w3.org/2000/svg">
    <rect x="30" y="375" width="10" height="40" rx="3" transform="rotate(-90 30 375)" fill="#DAD4D399"/>
    <rect x="55" y="390" width="10" height="40" rx="3" transform="rotate(180 55 390)" fill="#DAD4D399"/>
    <rect x="350" y="55" width="10" height="40" rx="3" transform="rotate(-90 350 55)" fill="#DAD4D399"/>
    <rect x="375" y="70" width="10" height="40" rx="3" transform="rotate(180 375 70)" fill="#DAD4D399"/>
    <path d="M208.515 58.2799L206.394 72.8526C206.102 74.86 208.639 75.9769 209.922 74.4057L230.5 49.2067C232.1 47.2474 230.706 44.3091 228.177 44.3091H212.642C210.759 44.3091 209.342 42.5951 209.695 40.7459L212.162 27.8437C212.552 25.7995 209.95 24.5924 208.642 26.2111L188.79 50.7764C187.469 52.4113 188.633 54.8478 190.735 54.8478H205.546C207.375 54.8478 208.778 56.4701 208.515 58.2799Z" fill="#DAD4D399"/>
    <path d="M208.515 378.28L206.394 392.853C206.102 394.86 208.639 395.977 209.922 394.406L230.5 369.207C232.1 367.247 230.706 364.309 228.177 364.309H212.642C210.759 364.309 209.342 362.595 209.695 360.746L212.162 347.844C212.552 345.8 209.95 344.592 208.642 346.211L188.79 370.776C187.469 372.411 188.633 374.848 190.735 374.848H205.546C207.375 374.848 208.778 376.47 208.515 378.28Z" fill="#DAD4D399"/>
    <path d="M48.5148 218.28L46.3938 232.853C46.1016 234.86 48.6389 235.977 49.922 234.406L70.5005 209.207C72.1005 207.247 70.7064 204.309 68.1768 204.309H52.6421C50.7594 204.309 49.342 202.595 49.6955 200.746L52.1616 187.844C52.5524 185.8 49.9497 184.592 48.6416 186.211L28.7901 210.776C27.4689 212.411 28.6326 214.848 30.7346 214.848H45.5461C47.3749 214.848 48.7782 216.47 48.5148 218.28Z" fill="#DAD4D399"/>
    <path d="M368.515 218.28L366.394 232.853C366.102 234.86 368.639 235.977 369.922 234.406L390.5 209.207C392.1 207.247 390.706 204.309 388.177 204.309H372.642C370.759 204.309 369.342 202.595 369.695 200.746L372.162 187.844C372.552 185.8 369.95 184.592 368.642 186.211L348.79 210.776C347.469 212.411 348.633 214.848 350.735 214.848H365.546C367.375 214.848 368.778 216.47 368.515 218.28Z" fill="#DAD4D399"/>
    <circle cx="50" cy="50" r="8" fill="#DAD4D399"/>
    <circle cx="210" cy="210" r="8" fill="#DAD4D399"/>
    <circle cx="370" cy="370" r="8" fill="#DAD4D399"/>
</svg>
