<svg width="2500" height="2832" viewBox="0 0 2500 2832" fill="none" xmlns="http://www.w3.org/2000/svg">
<rect x="30" y="375" width="10" height="40" rx="3" transform="rotate(-90 30 375)" fill="white"/>
<rect x="55" y="390" width="10" height="40" rx="3" transform="rotate(180 55 390)" fill="white"/>
<rect x="30" y="855" width="10" height="40" rx="3" transform="rotate(-90 30 855)" fill="white"/>
<rect x="55" y="870" width="10" height="40" rx="3" transform="rotate(180 55 870)" fill="white"/>
<rect x="510" y="375" width="10" height="40" rx="3" transform="rotate(-90 510 375)" fill="white"/>
<rect x="535" y="390" width="10" height="40" rx="3" transform="rotate(180 535 390)" fill="white"/>
<rect x="510" y="855" width="10" height="40" rx="3" transform="rotate(-90 510 855)" fill="white"/>
<rect x="535" y="870" width="10" height="40" rx="3" transform="rotate(180 535 870)" fill="white"/>
<rect x="350" y="55" width="10" height="40" rx="3" transform="rotate(-90 350 55)" fill="white"/>
<rect x="375" y="70" width="10" height="40" rx="3" transform="rotate(180 375 70)" fill="white"/>
<rect x="350" y="535" width="10" height="40" rx="3" transform="rotate(-90 350 535)" fill="white"/>
<rect x="375" y="550" width="10" height="40" rx="3" transform="rotate(180 375 550)" fill="white"/>
<path d="M208.515 58.2799L206.394 72.8526C206.102 74.86 208.639 75.9769 209.922 74.4057L230.5 49.2067C232.1 47.2474 230.706 44.3091 228.177 44.3091H212.642C210.759 44.3091 209.342 42.5951 209.695 40.7459L212.162 27.8437C212.552 25.7995 209.95 24.5924 208.642 26.2111L188.79 50.7764C187.469 52.4113 188.633 54.8478 190.735 54.8478H205.546C207.375 54.8478 208.778 56.4701 208.515 58.2799Z" fill="white"/>
<path d="M208.515 538.28L206.394 552.853C206.102 554.86 208.639 555.977 209.922 554.406L230.5 529.207C232.1 527.247 230.706 524.309 228.177 524.309H212.642C210.759 524.309 209.342 522.595 209.695 520.746L212.162 507.844C212.552 505.8 209.95 504.592 208.642 506.211L188.79 530.776C187.469 532.411 188.633 534.848 190.735 534.848H205.546C207.375 534.848 208.778 536.47 208.515 538.28Z" fill="white"/>
<path d="M208.515 378.28L206.394 392.853C206.102 394.86 208.639 395.977 209.922 394.406L230.5 369.207C232.1 367.247 230.706 364.309 228.177 364.309H212.642C210.759 364.309 209.342 362.595 209.695 360.746L212.162 347.844C212.552 345.8 209.95 344.592 208.642 346.211L188.79 370.776C187.469 372.411 188.633 374.848 190.735 374.848H205.546C207.375 374.848 208.778 376.47 208.515 378.28Z" fill="white"/>
<path d="M208.515 858.28L206.394 872.853C206.102 874.86 208.639 875.977 209.922 874.406L230.5 849.207C232.1 847.247 230.706 844.309 228.177 844.309H212.642C210.759 844.309 209.342 842.595 209.695 840.746L212.162 827.844C212.552 825.8 209.95 824.592 208.642 826.211L188.79 850.776C187.469 852.411 188.633 854.848 190.735 854.848H205.546C207.375 854.848 208.778 856.47 208.515 858.28Z" fill="white"/>
<path d="M48.5148 218.28L46.3938 232.853C46.1016 234.86 48.6389 235.977 49.922 234.406L70.5005 209.207C72.1005 207.247 70.7064 204.309 68.1768 204.309H52.6421C50.7594 204.309 49.342 202.595 49.6955 200.746L52.1616 187.844C52.5524 185.8 49.9497 184.592 48.6416 186.211L28.7901 210.776C27.4689 212.411 28.6326 214.848 30.7346 214.848H45.5461C47.3749 214.848 48.7782 216.47 48.5148 218.28Z" fill="white"/>
<path d="M48.5148 698.28L46.3938 712.853C46.1016 714.86 48.6389 715.977 49.922 714.406L70.5005 689.207C72.1005 687.247 70.7064 684.309 68.1768 684.309H52.6421C50.7594 684.309 49.342 682.595 49.6955 680.746L52.1616 667.844C52.5524 665.8 49.9497 664.592 48.6416 666.211L28.7901 690.776C27.4689 692.411 28.6326 694.848 30.7346 694.848H45.5461C47.3749 694.848 48.7782 696.47 48.5148 698.28Z" fill="white"/>
<path d="M368.515 218.28L366.394 232.853C366.102 234.86 368.639 235.977 369.922 234.406L390.5 209.207C392.1 207.247 390.706 204.309 388.177 204.309H372.642C370.759 204.309 369.342 202.595 369.695 200.746L372.162 187.844C372.552 185.8 369.95 184.592 368.642 186.211L348.79 210.776C347.469 212.411 348.633 214.848 350.735 214.848H365.546C367.375 214.848 368.778 216.47 368.515 218.28Z" fill="white"/>
<path d="M368.515 698.28L366.394 712.853C366.102 714.86 368.639 715.977 369.922 714.406L390.5 689.207C392.1 687.247 390.706 684.309 388.177 684.309H372.642C370.759 684.309 369.342 682.595 369.695 680.746L372.162 667.844C372.552 665.8 369.95 664.592 368.642 666.211L348.79 690.776C347.469 692.411 348.633 694.848 350.735 694.848H365.546C367.375 694.848 368.778 696.47 368.515 698.28Z" fill="white"/>
<circle cx="50" cy="50" r="8" fill="white"/>
<circle cx="50" cy="530" r="8" fill="white"/>
<circle cx="530" cy="50" r="8" fill="white"/>
<circle cx="530" cy="530" r="8" fill="white"/>
<circle cx="210" cy="210" r="8" fill="white"/>
<circle cx="210" cy="690" r="8" fill="white"/>
<circle cx="370" cy="370" r="8" fill="white"/>
<circle cx="370" cy="850" r="8" fill="white"/>
<circle cx="530" cy="210" r="8" fill="white"/>
<circle cx="530" cy="690" r="8" fill="white"/>
<rect x="670" y="55" width="10" height="40" rx="3" transform="rotate(-90 670 55)" fill="white"/>
<rect x="695" y="70" width="10" height="40" rx="3" transform="rotate(180 695 70)" fill="white"/>
<rect x="670" y="535" width="10" height="40" rx="3" transform="rotate(-90 670 535)" fill="white"/>
<rect x="695" y="550" width="10" height="40" rx="3" transform="rotate(180 695 550)" fill="white"/>
<rect x="1630" y="55" width="10" height="40" rx="3" transform="rotate(-90 1630 55)" fill="white"/>
<rect x="1655" y="70" width="10" height="40" rx="3" transform="rotate(180 1655 70)" fill="white"/>
<rect x="1630" y="535" width="10" height="40" rx="3" transform="rotate(-90 1630 535)" fill="white"/>
<rect x="1655" y="550" width="10" height="40" rx="3" transform="rotate(180 1655 550)" fill="white"/>
<rect x="990" y="375" width="10" height="40" rx="3" transform="rotate(-90 990 375)" fill="white"/>
<rect x="1015" y="390" width="10" height="40" rx="3" transform="rotate(180 1015 390)" fill="white"/>
<rect x="990" y="855" width="10" height="40" rx="3" transform="rotate(-90 990 855)" fill="white"/>
<rect x="1015" y="870" width="10" height="40" rx="3" transform="rotate(180 1015 870)" fill="white"/>
<rect x="1950" y="375" width="10" height="40" rx="3" transform="rotate(-90 1950 375)" fill="white"/>
<rect x="1975" y="390" width="10" height="40" rx="3" transform="rotate(180 1975 390)" fill="white"/>
<rect x="1950" y="855" width="10" height="40" rx="3" transform="rotate(-90 1950 855)" fill="white"/>
<rect x="1975" y="870" width="10" height="40" rx="3" transform="rotate(180 1975 870)" fill="white"/>
<rect x="1470" y="375" width="10" height="40" rx="3" transform="rotate(-90 1470 375)" fill="white"/>
<rect x="1495" y="390" width="10" height="40" rx="3" transform="rotate(180 1495 390)" fill="white"/>
<rect x="1470" y="855" width="10" height="40" rx="3" transform="rotate(-90 1470 855)" fill="white"/>
<rect x="1495" y="870" width="10" height="40" rx="3" transform="rotate(180 1495 870)" fill="white"/>
<rect x="2430" y="375" width="10" height="40" rx="3" transform="rotate(-90 2430 375)" fill="white"/>
<rect x="2455" y="390" width="10" height="40" rx="3" transform="rotate(180 2455 390)" fill="white"/>
<rect x="2430" y="855" width="10" height="40" rx="3" transform="rotate(-90 2430 855)" fill="white"/>
<rect x="2455" y="870" width="10" height="40" rx="3" transform="rotate(180 2455 870)" fill="white"/>
<rect x="1310" y="55" width="10" height="40" rx="3" transform="rotate(-90 1310 55)" fill="white"/>
<rect x="1335" y="70" width="10" height="40" rx="3" transform="rotate(180 1335 70)" fill="white"/>
<rect x="1310" y="535" width="10" height="40" rx="3" transform="rotate(-90 1310 535)" fill="white"/>
<rect x="1335" y="550" width="10" height="40" rx="3" transform="rotate(180 1335 550)" fill="white"/>
<rect x="2270" y="55" width="10" height="40" rx="3" transform="rotate(-90 2270 55)" fill="white"/>
<rect x="2295" y="70" width="10" height="40" rx="3" transform="rotate(180 2295 70)" fill="white"/>
<rect x="2270" y="535" width="10" height="40" rx="3" transform="rotate(-90 2270 535)" fill="white"/>
<rect x="2295" y="550" width="10" height="40" rx="3" transform="rotate(180 2295 550)" fill="white"/>
<path d="M848.515 58.2799L846.394 72.8526C846.102 74.86 848.639 75.9769 849.922 74.4057L870.5 49.2067C872.1 47.2474 870.706 44.3091 868.177 44.3091H852.642C850.759 44.3091 849.342 42.5951 849.695 40.7459L852.162 27.8437C852.552 25.7995 849.95 24.5924 848.642 26.2111L828.79 50.7764C827.469 52.4113 828.633 54.8478 830.735 54.8478H845.546C847.375 54.8478 848.778 56.4701 848.515 58.2799Z" fill="white"/>
<path d="M848.515 538.28L846.394 552.853C846.102 554.86 848.639 555.977 849.922 554.406L870.5 529.207C872.1 527.247 870.706 524.309 868.177 524.309H852.642C850.759 524.309 849.342 522.595 849.695 520.746L852.162 507.844C852.552 505.8 849.95 504.592 848.642 506.211L828.79 530.776C827.469 532.411 828.633 534.848 830.735 534.848H845.546C847.375 534.848 848.778 536.47 848.515 538.28Z" fill="white"/>
<path d="M1808.51 58.2799L1806.39 72.8526C1806.1 74.86 1808.64 75.9769 1809.92 74.4057L1830.5 49.2067C1832.1 47.2474 1830.71 44.3091 1828.18 44.3091H1812.64C1810.76 44.3091 1809.34 42.5951 1809.7 40.7459L1812.16 27.8437C1812.55 25.7995 1809.95 24.5924 1808.64 26.2111L1788.79 50.7764C1787.47 52.4113 1788.63 54.8478 1790.73 54.8478H1805.55C1807.37 54.8478 1808.78 56.4701 1808.51 58.2799Z" fill="white"/>
<path d="M1808.51 538.28L1806.39 552.853C1806.1 554.86 1808.64 555.977 1809.92 554.406L1830.5 529.207C1832.1 527.247 1830.71 524.309 1828.18 524.309H1812.64C1810.76 524.309 1809.34 522.595 1809.7 520.746L1812.16 507.844C1812.55 505.8 1809.95 504.592 1808.64 506.211L1788.79 530.776C1787.47 532.411 1788.63 534.848 1790.73 534.848H1805.55C1807.37 534.848 1808.78 536.47 1808.51 538.28Z" fill="white"/>
<path d="M848.515 378.28L846.394 392.853C846.102 394.86 848.639 395.977 849.922 394.406L870.5 369.207C872.1 367.247 870.706 364.309 868.177 364.309H852.642C850.759 364.309 849.342 362.595 849.695 360.746L852.162 347.844C852.552 345.8 849.95 344.592 848.642 346.211L828.79 370.776C827.469 372.411 828.633 374.848 830.735 374.848H845.546C847.375 374.848 848.778 376.47 848.515 378.28Z" fill="white"/>
<path d="M848.515 858.28L846.394 872.853C846.102 874.86 848.639 875.977 849.922 874.406L870.5 849.207C872.1 847.247 870.706 844.309 868.177 844.309H852.642C850.759 844.309 849.342 842.595 849.695 840.746L852.162 827.844C852.552 825.8 849.95 824.592 848.642 826.211L828.79 850.776C827.469 852.411 828.633 854.848 830.735 854.848H845.546C847.375 854.848 848.778 856.47 848.515 858.28Z" fill="white"/>
<path d="M1808.51 378.28L1806.39 392.853C1806.1 394.86 1808.64 395.977 1809.92 394.406L1830.5 369.207C1832.1 367.247 1830.71 364.309 1828.18 364.309H1812.64C1810.76 364.309 1809.34 362.595 1809.7 360.746L1812.16 347.844C1812.55 345.8 1809.95 344.592 1808.64 346.211L1788.79 370.776C1787.47 372.411 1788.63 374.848 1790.73 374.848H1805.55C1807.37 374.848 1808.78 376.47 1808.51 378.28Z" fill="white"/>
<path d="M1808.51 858.28L1806.39 872.853C1806.1 874.86 1808.64 875.977 1809.92 874.406L1830.5 849.207C1832.1 847.247 1830.71 844.309 1828.18 844.309H1812.64C1810.76 844.309 1809.34 842.595 1809.7 840.746L1812.16 827.844C1812.55 825.8 1809.95 824.592 1808.64 826.211L1788.79 850.776C1787.47 852.411 1788.63 854.848 1790.73 854.848H1805.55C1807.37 854.848 1808.78 856.47 1808.51 858.28Z" fill="white"/>
<path d="M1168.51 58.2799L1166.39 72.8526C1166.1 74.86 1168.64 75.9769 1169.92 74.4057L1190.5 49.2067C1192.1 47.2474 1190.71 44.3091 1188.18 44.3091H1172.64C1170.76 44.3091 1169.34 42.5951 1169.7 40.7459L1172.16 27.8437C1172.55 25.7995 1169.95 24.5924 1168.64 26.2111L1148.79 50.7764C1147.47 52.4113 1148.63 54.8478 1150.73 54.8478H1165.55C1167.37 54.8478 1168.78 56.4701 1168.51 58.2799Z" fill="white"/>
<path d="M1168.51 538.28L1166.39 552.853C1166.1 554.86 1168.64 555.977 1169.92 554.406L1190.5 529.207C1192.1 527.247 1190.71 524.309 1188.18 524.309H1172.64C1170.76 524.309 1169.34 522.595 1169.7 520.746L1172.16 507.844C1172.55 505.8 1169.95 504.592 1168.64 506.211L1148.79 530.776C1147.47 532.411 1148.63 534.848 1150.73 534.848H1165.55C1167.37 534.848 1168.78 536.47 1168.51 538.28Z" fill="white"/>
<path d="M2128.51 58.2799L2126.39 72.8526C2126.1 74.86 2128.64 75.9769 2129.92 74.4057L2150.5 49.2067C2152.1 47.2474 2150.71 44.3091 2148.18 44.3091H2132.64C2130.76 44.3091 2129.34 42.5951 2129.7 40.7459L2132.16 27.8437C2132.55 25.7995 2129.95 24.5924 2128.64 26.2111L2108.79 50.7764C2107.47 52.4113 2108.63 54.8478 2110.73 54.8478H2125.55C2127.37 54.8478 2128.78 56.4701 2128.51 58.2799Z" fill="white"/>
<path d="M2128.51 538.28L2126.39 552.853C2126.1 554.86 2128.64 555.977 2129.92 554.406L2150.5 529.207C2152.1 527.247 2150.71 524.309 2148.18 524.309H2132.64C2130.76 524.309 2129.34 522.595 2129.7 520.746L2132.16 507.844C2132.55 505.8 2129.95 504.592 2128.64 506.211L2108.79 530.776C2107.47 532.411 2108.63 534.848 2110.73 534.848H2125.55C2127.37 534.848 2128.78 536.47 2128.51 538.28Z" fill="white"/>
<path d="M1168.51 378.28L1166.39 392.853C1166.1 394.86 1168.64 395.977 1169.92 394.406L1190.5 369.207C1192.1 367.247 1190.71 364.309 1188.18 364.309H1172.64C1170.76 364.309 1169.34 362.595 1169.7 360.746L1172.16 347.844C1172.55 345.8 1169.95 344.592 1168.64 346.211L1148.79 370.776C1147.47 372.411 1148.63 374.848 1150.73 374.848H1165.55C1167.37 374.848 1168.78 376.47 1168.51 378.28Z" fill="white"/>
<path d="M1168.51 858.28L1166.39 872.853C1166.1 874.86 1168.64 875.977 1169.92 874.406L1190.5 849.207C1192.1 847.247 1190.71 844.309 1188.18 844.309H1172.64C1170.76 844.309 1169.34 842.595 1169.7 840.746L1172.16 827.844C1172.55 825.8 1169.95 824.592 1168.64 826.211L1148.79 850.776C1147.47 852.411 1148.63 854.848 1150.73 854.848H1165.55C1167.37 854.848 1168.78 856.47 1168.51 858.28Z" fill="white"/>
<path d="M2128.51 378.28L2126.39 392.853C2126.1 394.86 2128.64 395.977 2129.92 394.406L2150.5 369.207C2152.1 367.247 2150.71 364.309 2148.18 364.309H2132.64C2130.76 364.309 2129.34 362.595 2129.7 360.746L2132.16 347.844C2132.55 345.8 2129.95 344.592 2128.64 346.211L2108.79 370.776C2107.47 372.411 2108.63 374.848 2110.73 374.848H2125.55C2127.37 374.848 2128.78 376.47 2128.51 378.28Z" fill="white"/>
<path d="M2128.51 858.28L2126.39 872.853C2126.1 874.86 2128.64 875.977 2129.92 874.406L2150.5 849.207C2152.1 847.247 2150.71 844.309 2148.18 844.309H2132.64C2130.76 844.309 2129.34 842.595 2129.7 840.746L2132.16 827.844C2132.55 825.8 2129.95 824.592 2128.64 826.211L2108.79 850.776C2107.47 852.411 2108.63 854.848 2110.73 854.848H2125.55C2127.37 854.848 2128.78 856.47 2128.51 858.28Z" fill="white"/>
<path d="M688.515 218.28L686.394 232.853C686.102 234.86 688.639 235.977 689.922 234.406L710.5 209.207C712.1 207.247 710.706 204.309 708.177 204.309H692.642C690.759 204.309 689.342 202.595 689.695 200.746L692.162 187.844C692.552 185.8 689.95 184.592 688.642 186.211L668.79 210.776C667.469 212.411 668.633 214.848 670.735 214.848H685.546C687.375 214.848 688.778 216.47 688.515 218.28Z" fill="white"/>
<path d="M688.515 698.28L686.394 712.853C686.102 714.86 688.639 715.977 689.922 714.406L710.5 689.207C712.1 687.247 710.706 684.309 708.177 684.309H692.642C690.759 684.309 689.342 682.595 689.695 680.746L692.162 667.844C692.552 665.8 689.95 664.592 688.642 666.211L668.79 690.776C667.469 692.411 668.633 694.848 670.735 694.848H685.546C687.375 694.848 688.778 696.47 688.515 698.28Z" fill="white"/>
<path d="M1648.51 218.28L1646.39 232.853C1646.1 234.86 1648.64 235.977 1649.92 234.406L1670.5 209.207C1672.1 207.247 1670.71 204.309 1668.18 204.309H1652.64C1650.76 204.309 1649.34 202.595 1649.7 200.746L1652.16 187.844C1652.55 185.8 1649.95 184.592 1648.64 186.211L1628.79 210.776C1627.47 212.411 1628.63 214.848 1630.73 214.848H1645.55C1647.37 214.848 1648.78 216.47 1648.51 218.28Z" fill="white"/>
<path d="M1648.51 698.28L1646.39 712.853C1646.1 714.86 1648.64 715.977 1649.92 714.406L1670.5 689.207C1672.1 687.247 1670.71 684.309 1668.18 684.309H1652.64C1650.76 684.309 1649.34 682.595 1649.7 680.746L1652.16 667.844C1652.55 665.8 1649.95 664.592 1648.64 666.211L1628.79 690.776C1627.47 692.411 1628.63 694.848 1630.73 694.848H1645.55C1647.37 694.848 1648.78 696.47 1648.51 698.28Z" fill="white"/>
<path d="M1008.51 218.28L1006.39 232.853C1006.1 234.86 1008.64 235.977 1009.92 234.406L1030.5 209.207C1032.1 207.247 1030.71 204.309 1028.18 204.309H1012.64C1010.76 204.309 1009.34 202.595 1009.7 200.746L1012.16 187.844C1012.55 185.8 1009.95 184.592 1008.64 186.211L988.79 210.776C987.469 212.411 988.633 214.848 990.735 214.848H1005.55C1007.37 214.848 1008.78 216.47 1008.51 218.28Z" fill="white"/>
<path d="M1008.51 698.28L1006.39 712.853C1006.1 714.86 1008.64 715.977 1009.92 714.406L1030.5 689.207C1032.1 687.247 1030.71 684.309 1028.18 684.309H1012.64C1010.76 684.309 1009.34 682.595 1009.7 680.746L1012.16 667.844C1012.55 665.8 1009.95 664.592 1008.64 666.211L988.79 690.776C987.469 692.411 988.633 694.848 990.735 694.848H1005.55C1007.37 694.848 1008.78 696.47 1008.51 698.28Z" fill="white"/>
<path d="M1968.51 218.28L1966.39 232.853C1966.1 234.86 1968.64 235.977 1969.92 234.406L1990.5 209.207C1992.1 207.247 1990.71 204.309 1988.18 204.309H1972.64C1970.76 204.309 1969.34 202.595 1969.7 200.746L1972.16 187.844C1972.55 185.8 1969.95 184.592 1968.64 186.211L1948.79 210.776C1947.47 212.411 1948.63 214.848 1950.73 214.848H1965.55C1967.37 214.848 1968.78 216.47 1968.51 218.28Z" fill="white"/>
<path d="M1968.51 698.28L1966.39 712.853C1966.1 714.86 1968.64 715.977 1969.92 714.406L1990.5 689.207C1992.1 687.247 1990.71 684.309 1988.18 684.309H1972.64C1970.76 684.309 1969.34 682.595 1969.7 680.746L1972.16 667.844C1972.55 665.8 1969.95 664.592 1968.64 666.211L1948.79 690.776C1947.47 692.411 1948.63 694.848 1950.73 694.848H1965.55C1967.37 694.848 1968.78 696.47 1968.51 698.28Z" fill="white"/>
<path d="M1328.51 218.28L1326.39 232.853C1326.1 234.86 1328.64 235.977 1329.92 234.406L1350.5 209.207C1352.1 207.247 1350.71 204.309 1348.18 204.309H1332.64C1330.76 204.309 1329.34 202.595 1329.7 200.746L1332.16 187.844C1332.55 185.8 1329.95 184.592 1328.64 186.211L1308.79 210.776C1307.47 212.411 1308.63 214.848 1310.73 214.848H1325.55C1327.37 214.848 1328.78 216.47 1328.51 218.28Z" fill="white"/>
<path d="M1328.51 698.28L1326.39 712.853C1326.1 714.86 1328.64 715.977 1329.92 714.406L1350.5 689.207C1352.1 687.247 1350.71 684.309 1348.18 684.309H1332.64C1330.76 684.309 1329.34 682.595 1329.7 680.746L1332.16 667.844C1332.55 665.8 1329.95 664.592 1328.64 666.211L1308.79 690.776C1307.47 692.411 1308.63 694.848 1310.73 694.848H1325.55C1327.37 694.848 1328.78 696.47 1328.51 698.28Z" fill="white"/>
<path d="M2288.51 218.28L2286.39 232.853C2286.1 234.86 2288.64 235.977 2289.92 234.406L2310.5 209.207C2312.1 207.247 2310.71 204.309 2308.18 204.309H2292.64C2290.76 204.309 2289.34 202.595 2289.7 200.746L2292.16 187.844C2292.55 185.8 2289.95 184.592 2288.64 186.211L2268.79 210.776C2267.47 212.411 2268.63 214.848 2270.73 214.848H2285.55C2287.37 214.848 2288.78 216.47 2288.51 218.28Z" fill="white"/>
<path d="M2288.51 698.28L2286.39 712.853C2286.1 714.86 2288.64 715.977 2289.92 714.406L2310.5 689.207C2312.1 687.247 2310.71 684.309 2308.18 684.309H2292.64C2290.76 684.309 2289.34 682.595 2289.7 680.746L2292.16 667.844C2292.55 665.8 2289.95 664.592 2288.64 666.211L2268.79 690.776C2267.47 692.411 2268.63 694.848 2270.73 694.848H2285.55C2287.37 694.848 2288.78 696.47 2288.51 698.28Z" fill="white"/>
<circle cx="1010" cy="50" r="8" fill="white"/>
<circle cx="1010" cy="530" r="8" fill="white"/>
<circle cx="1970" cy="50" r="8" fill="white"/>
<circle cx="1970" cy="530" r="8" fill="white"/>
<circle cx="1490" cy="50" r="8" fill="white"/>
<circle cx="1490" cy="530" r="8" fill="white"/>
<circle cx="2450" cy="50" r="8" fill="white"/>
<circle cx="2450" cy="530" r="8" fill="white"/>
<circle cx="850" cy="210" r="8" fill="white"/>
<circle cx="850" cy="690" r="8" fill="white"/>
<circle cx="1810" cy="210" r="8" fill="white"/>
<circle cx="1810" cy="690" r="8" fill="white"/>
<circle cx="1170" cy="210" r="8" fill="white"/>
<circle cx="1170" cy="690" r="8" fill="white"/>
<circle cx="2130" cy="210" r="8" fill="white"/>
<circle cx="2130" cy="690" r="8" fill="white"/>
<circle cx="1330" cy="370" r="8" fill="white"/>
<circle cx="1330" cy="850" r="8" fill="white"/>
<circle cx="2290" cy="370" r="8" fill="white"/>
<circle cx="2290" cy="850" r="8" fill="white"/>
<circle cx="1490" cy="210" r="8" fill="white"/>
<circle cx="1490" cy="690" r="8" fill="white"/>
<circle cx="2450" cy="210" r="8" fill="white"/>
<circle cx="2450" cy="690" r="8" fill="white"/>
<circle cx="690" cy="370" r="8" fill="white"/>
<circle cx="690" cy="850" r="8" fill="white"/>
<circle cx="1650" cy="370" r="8" fill="white"/>
<circle cx="1650" cy="850" r="8" fill="white"/>
<rect x="30" y="1341" width="10" height="40" rx="3" transform="rotate(-90 30 1341)" fill="white"/>
<rect x="55" y="1356" width="10" height="40" rx="3" transform="rotate(180 55 1356)" fill="white"/>
<rect x="30" y="1821" width="10" height="40" rx="3" transform="rotate(-90 30 1821)" fill="white"/>
<rect x="55" y="1836" width="10" height="40" rx="3" transform="rotate(180 55 1836)" fill="white"/>
<rect x="510" y="1341" width="10" height="40" rx="3" transform="rotate(-90 510 1341)" fill="white"/>
<rect x="535" y="1356" width="10" height="40" rx="3" transform="rotate(180 535 1356)" fill="white"/>
<rect x="510" y="1821" width="10" height="40" rx="3" transform="rotate(-90 510 1821)" fill="white"/>
<rect x="535" y="1836" width="10" height="40" rx="3" transform="rotate(180 535 1836)" fill="white"/>
<rect x="350" y="1021" width="10" height="40" rx="3" transform="rotate(-90 350 1021)" fill="white"/>
<rect x="375" y="1036" width="10" height="40" rx="3" transform="rotate(180 375 1036)" fill="white"/>
<rect x="350" y="1501" width="10" height="40" rx="3" transform="rotate(-90 350 1501)" fill="white"/>
<rect x="375" y="1516" width="10" height="40" rx="3" transform="rotate(180 375 1516)" fill="white"/>
<path d="M208.515 1024.28L206.394 1038.85C206.102 1040.86 208.639 1041.98 209.922 1040.41L230.5 1015.21C232.1 1013.25 230.706 1010.31 228.177 1010.31H212.642C210.759 1010.31 209.342 1008.6 209.695 1006.75L212.162 993.844C212.552 991.8 209.95 990.592 208.642 992.211L188.79 1016.78C187.469 1018.41 188.633 1020.85 190.735 1020.85H205.546C207.375 1020.85 208.778 1022.47 208.515 1024.28Z" fill="white"/>
<path d="M208.515 1504.28L206.394 1518.85C206.102 1520.86 208.639 1521.98 209.922 1520.41L230.5 1495.21C232.1 1493.25 230.706 1490.31 228.177 1490.31H212.642C210.759 1490.31 209.342 1488.6 209.695 1486.75L212.162 1473.84C212.552 1471.8 209.95 1470.59 208.642 1472.21L188.79 1496.78C187.469 1498.41 188.633 1500.85 190.735 1500.85H205.546C207.375 1500.85 208.778 1502.47 208.515 1504.28Z" fill="white"/>
<path d="M208.515 1344.28L206.394 1358.85C206.102 1360.86 208.639 1361.98 209.922 1360.41L230.5 1335.21C232.1 1333.25 230.706 1330.31 228.177 1330.31H212.642C210.759 1330.31 209.342 1328.6 209.695 1326.75L212.162 1313.84C212.552 1311.8 209.95 1310.59 208.642 1312.21L188.79 1336.78C187.469 1338.41 188.633 1340.85 190.735 1340.85H205.546C207.375 1340.85 208.778 1342.47 208.515 1344.28Z" fill="white"/>
<path d="M208.515 1824.28L206.394 1838.85C206.102 1840.86 208.639 1841.98 209.922 1840.41L230.5 1815.21C232.1 1813.25 230.706 1810.31 228.177 1810.31H212.642C210.759 1810.31 209.342 1808.6 209.695 1806.75L212.162 1793.84C212.552 1791.8 209.95 1790.59 208.642 1792.21L188.79 1816.78C187.469 1818.41 188.633 1820.85 190.735 1820.85H205.546C207.375 1820.85 208.778 1822.47 208.515 1824.28Z" fill="white"/>
<path d="M48.5148 1184.28L46.3938 1198.85C46.1016 1200.86 48.6389 1201.98 49.922 1200.41L70.5005 1175.21C72.1005 1173.25 70.7064 1170.31 68.1768 1170.31H52.6421C50.7594 1170.31 49.342 1168.6 49.6955 1166.75L52.1616 1153.84C52.5524 1151.8 49.9497 1150.59 48.6416 1152.21L28.7901 1176.78C27.4689 1178.41 28.6326 1180.85 30.7346 1180.85H45.5461C47.3749 1180.85 48.7782 1182.47 48.5148 1184.28Z" fill="white"/>
<path d="M48.5148 1664.28L46.3938 1678.85C46.1016 1680.86 48.6389 1681.98 49.922 1680.41L70.5005 1655.21C72.1005 1653.25 70.7064 1650.31 68.1768 1650.31H52.6421C50.7594 1650.31 49.342 1648.6 49.6955 1646.75L52.1616 1633.84C52.5524 1631.8 49.9497 1630.59 48.6416 1632.21L28.7901 1656.78C27.4689 1658.41 28.6326 1660.85 30.7346 1660.85H45.5461C47.3749 1660.85 48.7782 1662.47 48.5148 1664.28Z" fill="white"/>
<path d="M368.515 1184.28L366.394 1198.85C366.102 1200.86 368.639 1201.98 369.922 1200.41L390.5 1175.21C392.1 1173.25 390.706 1170.31 388.177 1170.31H372.642C370.759 1170.31 369.342 1168.6 369.695 1166.75L372.162 1153.84C372.552 1151.8 369.95 1150.59 368.642 1152.21L348.79 1176.78C347.469 1178.41 348.633 1180.85 350.735 1180.85H365.546C367.375 1180.85 368.778 1182.47 368.515 1184.28Z" fill="white"/>
<path d="M368.515 1664.28L366.394 1678.85C366.102 1680.86 368.639 1681.98 369.922 1680.41L390.5 1655.21C392.1 1653.25 390.706 1650.31 388.177 1650.31H372.642C370.759 1650.31 369.342 1648.6 369.695 1646.75L372.162 1633.84C372.552 1631.8 369.95 1630.59 368.642 1632.21L348.79 1656.78C347.469 1658.41 348.633 1660.85 350.735 1660.85H365.546C367.375 1660.85 368.778 1662.47 368.515 1664.28Z" fill="white"/>
<circle cx="50" cy="1016" r="8" fill="white"/>
<circle cx="50" cy="1496" r="8" fill="white"/>
<circle cx="530" cy="1016" r="8" fill="white"/>
<circle cx="530" cy="1496" r="8" fill="white"/>
<circle cx="210" cy="1176" r="8" fill="white"/>
<circle cx="210" cy="1656" r="8" fill="white"/>
<circle cx="370" cy="1336" r="8" fill="white"/>
<circle cx="370" cy="1816" r="8" fill="white"/>
<circle cx="530" cy="1176" r="8" fill="white"/>
<circle cx="530" cy="1656" r="8" fill="white"/>
<rect x="670" y="1021" width="10" height="40" rx="3" transform="rotate(-90 670 1021)" fill="white"/>
<rect x="695" y="1036" width="10" height="40" rx="3" transform="rotate(180 695 1036)" fill="white"/>
<rect x="670" y="1501" width="10" height="40" rx="3" transform="rotate(-90 670 1501)" fill="white"/>
<rect x="695" y="1516" width="10" height="40" rx="3" transform="rotate(180 695 1516)" fill="white"/>
<rect x="1630" y="1021" width="10" height="40" rx="3" transform="rotate(-90 1630 1021)" fill="white"/>
<rect x="1655" y="1036" width="10" height="40" rx="3" transform="rotate(180 1655 1036)" fill="white"/>
<rect x="1630" y="1501" width="10" height="40" rx="3" transform="rotate(-90 1630 1501)" fill="white"/>
<rect x="1655" y="1516" width="10" height="40" rx="3" transform="rotate(180 1655 1516)" fill="white"/>
<rect x="990" y="1341" width="10" height="40" rx="3" transform="rotate(-90 990 1341)" fill="white"/>
<rect x="1015" y="1356" width="10" height="40" rx="3" transform="rotate(180 1015 1356)" fill="white"/>
<rect x="990" y="1821" width="10" height="40" rx="3" transform="rotate(-90 990 1821)" fill="white"/>
<rect x="1015" y="1836" width="10" height="40" rx="3" transform="rotate(180 1015 1836)" fill="white"/>
<rect x="1950" y="1341" width="10" height="40" rx="3" transform="rotate(-90 1950 1341)" fill="white"/>
<rect x="1975" y="1356" width="10" height="40" rx="3" transform="rotate(180 1975 1356)" fill="white"/>
<rect x="1950" y="1821" width="10" height="40" rx="3" transform="rotate(-90 1950 1821)" fill="white"/>
<rect x="1975" y="1836" width="10" height="40" rx="3" transform="rotate(180 1975 1836)" fill="white"/>
<rect x="1470" y="1341" width="10" height="40" rx="3" transform="rotate(-90 1470 1341)" fill="white"/>
<rect x="1495" y="1356" width="10" height="40" rx="3" transform="rotate(180 1495 1356)" fill="white"/>
<rect x="1470" y="1821" width="10" height="40" rx="3" transform="rotate(-90 1470 1821)" fill="white"/>
<rect x="1495" y="1836" width="10" height="40" rx="3" transform="rotate(180 1495 1836)" fill="white"/>
<rect x="2430" y="1341" width="10" height="40" rx="3" transform="rotate(-90 2430 1341)" fill="white"/>
<rect x="2455" y="1356" width="10" height="40" rx="3" transform="rotate(180 2455 1356)" fill="white"/>
<rect x="2430" y="1821" width="10" height="40" rx="3" transform="rotate(-90 2430 1821)" fill="white"/>
<rect x="2455" y="1836" width="10" height="40" rx="3" transform="rotate(180 2455 1836)" fill="white"/>
<rect x="1310" y="1021" width="10" height="40" rx="3" transform="rotate(-90 1310 1021)" fill="white"/>
<rect x="1335" y="1036" width="10" height="40" rx="3" transform="rotate(180 1335 1036)" fill="white"/>
<rect x="1310" y="1501" width="10" height="40" rx="3" transform="rotate(-90 1310 1501)" fill="white"/>
<rect x="1335" y="1516" width="10" height="40" rx="3" transform="rotate(180 1335 1516)" fill="white"/>
<rect x="2270" y="1021" width="10" height="40" rx="3" transform="rotate(-90 2270 1021)" fill="white"/>
<rect x="2295" y="1036" width="10" height="40" rx="3" transform="rotate(180 2295 1036)" fill="white"/>
<rect x="2270" y="1501" width="10" height="40" rx="3" transform="rotate(-90 2270 1501)" fill="white"/>
<rect x="2295" y="1516" width="10" height="40" rx="3" transform="rotate(180 2295 1516)" fill="white"/>
<path d="M848.515 1024.28L846.394 1038.85C846.102 1040.86 848.639 1041.98 849.922 1040.41L870.5 1015.21C872.1 1013.25 870.706 1010.31 868.177 1010.31H852.642C850.759 1010.31 849.342 1008.6 849.695 1006.75L852.162 993.844C852.552 991.8 849.95 990.592 848.642 992.211L828.79 1016.78C827.469 1018.41 828.633 1020.85 830.735 1020.85H845.546C847.375 1020.85 848.778 1022.47 848.515 1024.28Z" fill="white"/>
<path d="M848.515 1504.28L846.394 1518.85C846.102 1520.86 848.639 1521.98 849.922 1520.41L870.5 1495.21C872.1 1493.25 870.706 1490.31 868.177 1490.31H852.642C850.759 1490.31 849.342 1488.6 849.695 1486.75L852.162 1473.84C852.552 1471.8 849.95 1470.59 848.642 1472.21L828.79 1496.78C827.469 1498.41 828.633 1500.85 830.735 1500.85H845.546C847.375 1500.85 848.778 1502.47 848.515 1504.28Z" fill="white"/>
<path d="M1808.51 1024.28L1806.39 1038.85C1806.1 1040.86 1808.64 1041.98 1809.92 1040.41L1830.5 1015.21C1832.1 1013.25 1830.71 1010.31 1828.18 1010.31H1812.64C1810.76 1010.31 1809.34 1008.6 1809.7 1006.75L1812.16 993.844C1812.55 991.8 1809.95 990.592 1808.64 992.211L1788.79 1016.78C1787.47 1018.41 1788.63 1020.85 1790.73 1020.85H1805.55C1807.37 1020.85 1808.78 1022.47 1808.51 1024.28Z" fill="white"/>
<path d="M1808.51 1504.28L1806.39 1518.85C1806.1 1520.86 1808.64 1521.98 1809.92 1520.41L1830.5 1495.21C1832.1 1493.25 1830.71 1490.31 1828.18 1490.31H1812.64C1810.76 1490.31 1809.34 1488.6 1809.7 1486.75L1812.16 1473.84C1812.55 1471.8 1809.95 1470.59 1808.64 1472.21L1788.79 1496.78C1787.47 1498.41 1788.63 1500.85 1790.73 1500.85H1805.55C1807.37 1500.85 1808.78 1502.47 1808.51 1504.28Z" fill="white"/>
<path d="M848.515 1344.28L846.394 1358.85C846.102 1360.86 848.639 1361.98 849.922 1360.41L870.5 1335.21C872.1 1333.25 870.706 1330.31 868.177 1330.31H852.642C850.759 1330.31 849.342 1328.6 849.695 1326.75L852.162 1313.84C852.552 1311.8 849.95 1310.59 848.642 1312.21L828.79 1336.78C827.469 1338.41 828.633 1340.85 830.735 1340.85H845.546C847.375 1340.85 848.778 1342.47 848.515 1344.28Z" fill="white"/>
<path d="M848.515 1824.28L846.394 1838.85C846.102 1840.86 848.639 1841.98 849.922 1840.41L870.5 1815.21C872.1 1813.25 870.706 1810.31 868.177 1810.31H852.642C850.759 1810.31 849.342 1808.6 849.695 1806.75L852.162 1793.84C852.552 1791.8 849.95 1790.59 848.642 1792.21L828.79 1816.78C827.469 1818.41 828.633 1820.85 830.735 1820.85H845.546C847.375 1820.85 848.778 1822.47 848.515 1824.28Z" fill="white"/>
<path d="M1808.51 1344.28L1806.39 1358.85C1806.1 1360.86 1808.64 1361.98 1809.92 1360.41L1830.5 1335.21C1832.1 1333.25 1830.71 1330.31 1828.18 1330.31H1812.64C1810.76 1330.31 1809.34 1328.6 1809.7 1326.75L1812.16 1313.84C1812.55 1311.8 1809.95 1310.59 1808.64 1312.21L1788.79 1336.78C1787.47 1338.41 1788.63 1340.85 1790.73 1340.85H1805.55C1807.37 1340.85 1808.78 1342.47 1808.51 1344.28Z" fill="white"/>
<path d="M1808.51 1824.28L1806.39 1838.85C1806.1 1840.86 1808.64 1841.98 1809.92 1840.41L1830.5 1815.21C1832.1 1813.25 1830.71 1810.31 1828.18 1810.31H1812.64C1810.76 1810.31 1809.34 1808.6 1809.7 1806.75L1812.16 1793.84C1812.55 1791.8 1809.95 1790.59 1808.64 1792.21L1788.79 1816.78C1787.47 1818.41 1788.63 1820.85 1790.73 1820.85H1805.55C1807.37 1820.85 1808.78 1822.47 1808.51 1824.28Z" fill="white"/>
<path d="M1168.51 1024.28L1166.39 1038.85C1166.1 1040.86 1168.64 1041.98 1169.92 1040.41L1190.5 1015.21C1192.1 1013.25 1190.71 1010.31 1188.18 1010.31H1172.64C1170.76 1010.31 1169.34 1008.6 1169.7 1006.75L1172.16 993.844C1172.55 991.8 1169.95 990.592 1168.64 992.211L1148.79 1016.78C1147.47 1018.41 1148.63 1020.85 1150.73 1020.85H1165.55C1167.37 1020.85 1168.78 1022.47 1168.51 1024.28Z" fill="white"/>
<path d="M1168.51 1504.28L1166.39 1518.85C1166.1 1520.86 1168.64 1521.98 1169.92 1520.41L1190.5 1495.21C1192.1 1493.25 1190.71 1490.31 1188.18 1490.31H1172.64C1170.76 1490.31 1169.34 1488.6 1169.7 1486.75L1172.16 1473.84C1172.55 1471.8 1169.95 1470.59 1168.64 1472.21L1148.79 1496.78C1147.47 1498.41 1148.63 1500.85 1150.73 1500.85H1165.55C1167.37 1500.85 1168.78 1502.47 1168.51 1504.28Z" fill="white"/>
<path d="M2128.51 1024.28L2126.39 1038.85C2126.1 1040.86 2128.64 1041.98 2129.92 1040.41L2150.5 1015.21C2152.1 1013.25 2150.71 1010.31 2148.18 1010.31H2132.64C2130.76 1010.31 2129.34 1008.6 2129.7 1006.75L2132.16 993.844C2132.55 991.8 2129.95 990.592 2128.64 992.211L2108.79 1016.78C2107.47 1018.41 2108.63 1020.85 2110.73 1020.85H2125.55C2127.37 1020.85 2128.78 1022.47 2128.51 1024.28Z" fill="white"/>
<path d="M2128.51 1504.28L2126.39 1518.85C2126.1 1520.86 2128.64 1521.98 2129.92 1520.41L2150.5 1495.21C2152.1 1493.25 2150.71 1490.31 2148.18 1490.31H2132.64C2130.76 1490.31 2129.34 1488.6 2129.7 1486.75L2132.16 1473.84C2132.55 1471.8 2129.95 1470.59 2128.64 1472.21L2108.79 1496.78C2107.47 1498.41 2108.63 1500.85 2110.73 1500.85H2125.55C2127.37 1500.85 2128.78 1502.47 2128.51 1504.28Z" fill="white"/>
<path d="M1168.51 1344.28L1166.39 1358.85C1166.1 1360.86 1168.64 1361.98 1169.92 1360.41L1190.5 1335.21C1192.1 1333.25 1190.71 1330.31 1188.18 1330.31H1172.64C1170.76 1330.31 1169.34 1328.6 1169.7 1326.75L1172.16 1313.84C1172.55 1311.8 1169.95 1310.59 1168.64 1312.21L1148.79 1336.78C1147.47 1338.41 1148.63 1340.85 1150.73 1340.85H1165.55C1167.37 1340.85 1168.78 1342.47 1168.51 1344.28Z" fill="white"/>
<path d="M1168.51 1824.28L1166.39 1838.85C1166.1 1840.86 1168.64 1841.98 1169.92 1840.41L1190.5 1815.21C1192.1 1813.25 1190.71 1810.31 1188.18 1810.31H1172.64C1170.76 1810.31 1169.34 1808.6 1169.7 1806.75L1172.16 1793.84C1172.55 1791.8 1169.95 1790.59 1168.64 1792.21L1148.79 1816.78C1147.47 1818.41 1148.63 1820.85 1150.73 1820.85H1165.55C1167.37 1820.85 1168.78 1822.47 1168.51 1824.28Z" fill="white"/>
<path d="M2128.51 1344.28L2126.39 1358.85C2126.1 1360.86 2128.64 1361.98 2129.92 1360.41L2150.5 1335.21C2152.1 1333.25 2150.71 1330.31 2148.18 1330.31H2132.64C2130.76 1330.31 2129.34 1328.6 2129.7 1326.75L2132.16 1313.84C2132.55 1311.8 2129.95 1310.59 2128.64 1312.21L2108.79 1336.78C2107.47 1338.41 2108.63 1340.85 2110.73 1340.85H2125.55C2127.37 1340.85 2128.78 1342.47 2128.51 1344.28Z" fill="white"/>
<path d="M2128.51 1824.28L2126.39 1838.85C2126.1 1840.86 2128.64 1841.98 2129.92 1840.41L2150.5 1815.21C2152.1 1813.25 2150.71 1810.31 2148.18 1810.31H2132.64C2130.76 1810.31 2129.34 1808.6 2129.7 1806.75L2132.16 1793.84C2132.55 1791.8 2129.95 1790.59 2128.64 1792.21L2108.79 1816.78C2107.47 1818.41 2108.63 1820.85 2110.73 1820.85H2125.55C2127.37 1820.85 2128.78 1822.47 2128.51 1824.28Z" fill="white"/>
<path d="M688.515 1184.28L686.394 1198.85C686.102 1200.86 688.639 1201.98 689.922 1200.41L710.5 1175.21C712.1 1173.25 710.706 1170.31 708.177 1170.31H692.642C690.759 1170.31 689.342 1168.6 689.695 1166.75L692.162 1153.84C692.552 1151.8 689.95 1150.59 688.642 1152.21L668.79 1176.78C667.469 1178.41 668.633 1180.85 670.735 1180.85H685.546C687.375 1180.85 688.778 1182.47 688.515 1184.28Z" fill="white"/>
<path d="M688.515 1664.28L686.394 1678.85C686.102 1680.86 688.639 1681.98 689.922 1680.41L710.5 1655.21C712.1 1653.25 710.706 1650.31 708.177 1650.31H692.642C690.759 1650.31 689.342 1648.6 689.695 1646.75L692.162 1633.84C692.552 1631.8 689.95 1630.59 688.642 1632.21L668.79 1656.78C667.469 1658.41 668.633 1660.85 670.735 1660.85H685.546C687.375 1660.85 688.778 1662.47 688.515 1664.28Z" fill="white"/>
<path d="M1648.51 1184.28L1646.39 1198.85C1646.1 1200.86 1648.64 1201.98 1649.92 1200.41L1670.5 1175.21C1672.1 1173.25 1670.71 1170.31 1668.18 1170.31H1652.64C1650.76 1170.31 1649.34 1168.6 1649.7 1166.75L1652.16 1153.84C1652.55 1151.8 1649.95 1150.59 1648.64 1152.21L1628.79 1176.78C1627.47 1178.41 1628.63 1180.85 1630.73 1180.85H1645.55C1647.37 1180.85 1648.78 1182.47 1648.51 1184.28Z" fill="white"/>
<path d="M1648.51 1664.28L1646.39 1678.85C1646.1 1680.86 1648.64 1681.98 1649.92 1680.41L1670.5 1655.21C1672.1 1653.25 1670.71 1650.31 1668.18 1650.31H1652.64C1650.76 1650.31 1649.34 1648.6 1649.7 1646.75L1652.16 1633.84C1652.55 1631.8 1649.95 1630.59 1648.64 1632.21L1628.79 1656.78C1627.47 1658.41 1628.63 1660.85 1630.73 1660.85H1645.55C1647.37 1660.85 1648.78 1662.47 1648.51 1664.28Z" fill="white"/>
<path d="M1008.51 1184.28L1006.39 1198.85C1006.1 1200.86 1008.64 1201.98 1009.92 1200.41L1030.5 1175.21C1032.1 1173.25 1030.71 1170.31 1028.18 1170.31H1012.64C1010.76 1170.31 1009.34 1168.6 1009.7 1166.75L1012.16 1153.84C1012.55 1151.8 1009.95 1150.59 1008.64 1152.21L988.79 1176.78C987.469 1178.41 988.633 1180.85 990.735 1180.85H1005.55C1007.37 1180.85 1008.78 1182.47 1008.51 1184.28Z" fill="white"/>
<path d="M1008.51 1664.28L1006.39 1678.85C1006.1 1680.86 1008.64 1681.98 1009.92 1680.41L1030.5 1655.21C1032.1 1653.25 1030.71 1650.31 1028.18 1650.31H1012.64C1010.76 1650.31 1009.34 1648.6 1009.7 1646.75L1012.16 1633.84C1012.55 1631.8 1009.95 1630.59 1008.64 1632.21L988.79 1656.78C987.469 1658.41 988.633 1660.85 990.735 1660.85H1005.55C1007.37 1660.85 1008.78 1662.47 1008.51 1664.28Z" fill="white"/>
<path d="M1968.51 1184.28L1966.39 1198.85C1966.1 1200.86 1968.64 1201.98 1969.92 1200.41L1990.5 1175.21C1992.1 1173.25 1990.71 1170.31 1988.18 1170.31H1972.64C1970.76 1170.31 1969.34 1168.6 1969.7 1166.75L1972.16 1153.84C1972.55 1151.8 1969.95 1150.59 1968.64 1152.21L1948.79 1176.78C1947.47 1178.41 1948.63 1180.85 1950.73 1180.85H1965.55C1967.37 1180.85 1968.78 1182.47 1968.51 1184.28Z" fill="white"/>
<path d="M1968.51 1664.28L1966.39 1678.85C1966.1 1680.86 1968.64 1681.98 1969.92 1680.41L1990.5 1655.21C1992.1 1653.25 1990.71 1650.31 1988.18 1650.31H1972.64C1970.76 1650.31 1969.34 1648.6 1969.7 1646.75L1972.16 1633.84C1972.55 1631.8 1969.95 1630.59 1968.64 1632.21L1948.79 1656.78C1947.47 1658.41 1948.63 1660.85 1950.73 1660.85H1965.55C1967.37 1660.85 1968.78 1662.47 1968.51 1664.28Z" fill="white"/>
<path d="M1328.51 1184.28L1326.39 1198.85C1326.1 1200.86 1328.64 1201.98 1329.92 1200.41L1350.5 1175.21C1352.1 1173.25 1350.71 1170.31 1348.18 1170.31H1332.64C1330.76 1170.31 1329.34 1168.6 1329.7 1166.75L1332.16 1153.84C1332.55 1151.8 1329.95 1150.59 1328.64 1152.21L1308.79 1176.78C1307.47 1178.41 1308.63 1180.85 1310.73 1180.85H1325.55C1327.37 1180.85 1328.78 1182.47 1328.51 1184.28Z" fill="white"/>
<path d="M1328.51 1664.28L1326.39 1678.85C1326.1 1680.86 1328.64 1681.98 1329.92 1680.41L1350.5 1655.21C1352.1 1653.25 1350.71 1650.31 1348.18 1650.31H1332.64C1330.76 1650.31 1329.34 1648.6 1329.7 1646.75L1332.16 1633.84C1332.55 1631.8 1329.95 1630.59 1328.64 1632.21L1308.79 1656.78C1307.47 1658.41 1308.63 1660.85 1310.73 1660.85H1325.55C1327.37 1660.85 1328.78 1662.47 1328.51 1664.28Z" fill="white"/>
<path d="M2288.51 1184.28L2286.39 1198.85C2286.1 1200.86 2288.64 1201.98 2289.92 1200.41L2310.5 1175.21C2312.1 1173.25 2310.71 1170.31 2308.18 1170.31H2292.64C2290.76 1170.31 2289.34 1168.6 2289.7 1166.75L2292.16 1153.84C2292.55 1151.8 2289.95 1150.59 2288.64 1152.21L2268.79 1176.78C2267.47 1178.41 2268.63 1180.85 2270.73 1180.85H2285.55C2287.37 1180.85 2288.78 1182.47 2288.51 1184.28Z" fill="white"/>
<path d="M2288.51 1664.28L2286.39 1678.85C2286.1 1680.86 2288.64 1681.98 2289.92 1680.41L2310.5 1655.21C2312.1 1653.25 2310.71 1650.31 2308.18 1650.31H2292.64C2290.76 1650.31 2289.34 1648.6 2289.7 1646.75L2292.16 1633.84C2292.55 1631.8 2289.95 1630.59 2288.64 1632.21L2268.79 1656.78C2267.47 1658.41 2268.63 1660.85 2270.73 1660.85H2285.55C2287.37 1660.85 2288.78 1662.47 2288.51 1664.28Z" fill="white"/>
<circle cx="1010" cy="1016" r="8" fill="white"/>
<circle cx="1010" cy="1496" r="8" fill="white"/>
<circle cx="1970" cy="1016" r="8" fill="white"/>
<circle cx="1970" cy="1496" r="8" fill="white"/>
<circle cx="1490" cy="1016" r="8" fill="white"/>
<circle cx="1490" cy="1496" r="8" fill="white"/>
<circle cx="2450" cy="1016" r="8" fill="white"/>
<circle cx="2450" cy="1496" r="8" fill="white"/>
<circle cx="850" cy="1176" r="8" fill="white"/>
<circle cx="850" cy="1656" r="8" fill="white"/>
<circle cx="1810" cy="1176" r="8" fill="white"/>
<circle cx="1810" cy="1656" r="8" fill="white"/>
<circle cx="1170" cy="1176" r="8" fill="white"/>
<circle cx="1170" cy="1656" r="8" fill="white"/>
<circle cx="2130" cy="1176" r="8" fill="white"/>
<circle cx="2130" cy="1656" r="8" fill="white"/>
<circle cx="1330" cy="1336" r="8" fill="white"/>
<circle cx="1330" cy="1816" r="8" fill="white"/>
<circle cx="2290" cy="1336" r="8" fill="white"/>
<circle cx="2290" cy="1816" r="8" fill="white"/>
<circle cx="1490" cy="1176" r="8" fill="white"/>
<circle cx="1490" cy="1656" r="8" fill="white"/>
<circle cx="2450" cy="1176" r="8" fill="white"/>
<circle cx="2450" cy="1656" r="8" fill="white"/>
<circle cx="690" cy="1336" r="8" fill="white"/>
<circle cx="690" cy="1816" r="8" fill="white"/>
<circle cx="1650" cy="1336" r="8" fill="white"/>
<circle cx="1650" cy="1816" r="8" fill="white"/>
<rect x="30" y="2307" width="10" height="40" rx="3" transform="rotate(-90 30 2307)" fill="white"/>
<rect x="55" y="2322" width="10" height="40" rx="3" transform="rotate(180 55 2322)" fill="white"/>
<rect x="30" y="2787" width="10" height="40" rx="3" transform="rotate(-90 30 2787)" fill="white"/>
<rect x="55" y="2802" width="10" height="40" rx="3" transform="rotate(180 55 2802)" fill="white"/>
<rect x="510" y="2307" width="10" height="40" rx="3" transform="rotate(-90 510 2307)" fill="white"/>
<rect x="535" y="2322" width="10" height="40" rx="3" transform="rotate(180 535 2322)" fill="white"/>
<rect x="510" y="2787" width="10" height="40" rx="3" transform="rotate(-90 510 2787)" fill="white"/>
<rect x="535" y="2802" width="10" height="40" rx="3" transform="rotate(180 535 2802)" fill="white"/>
<rect x="350" y="1987" width="10" height="40" rx="3" transform="rotate(-90 350 1987)" fill="white"/>
<rect x="375" y="2002" width="10" height="40" rx="3" transform="rotate(180 375 2002)" fill="white"/>
<rect x="350" y="2467" width="10" height="40" rx="3" transform="rotate(-90 350 2467)" fill="white"/>
<rect x="375" y="2482" width="10" height="40" rx="3" transform="rotate(180 375 2482)" fill="white"/>
<path d="M208.515 1990.28L206.394 2004.85C206.102 2006.86 208.639 2007.98 209.922 2006.41L230.5 1981.21C232.1 1979.25 230.706 1976.31 228.177 1976.31H212.642C210.759 1976.31 209.342 1974.6 209.695 1972.75L212.162 1959.84C212.552 1957.8 209.95 1956.59 208.642 1958.21L188.79 1982.78C187.469 1984.41 188.633 1986.85 190.735 1986.85H205.546C207.375 1986.85 208.778 1988.47 208.515 1990.28Z" fill="white"/>
<path d="M208.515 2470.28L206.394 2484.85C206.102 2486.86 208.639 2487.98 209.922 2486.41L230.5 2461.21C232.1 2459.25 230.706 2456.31 228.177 2456.31H212.642C210.759 2456.31 209.342 2454.6 209.695 2452.75L212.162 2439.84C212.552 2437.8 209.95 2436.59 208.642 2438.21L188.79 2462.78C187.469 2464.41 188.633 2466.85 190.735 2466.85H205.546C207.375 2466.85 208.778 2468.47 208.515 2470.28Z" fill="white"/>
<path d="M208.515 2310.28L206.394 2324.85C206.102 2326.86 208.639 2327.98 209.922 2326.41L230.5 2301.21C232.1 2299.25 230.706 2296.31 228.177 2296.31H212.642C210.759 2296.31 209.342 2294.6 209.695 2292.75L212.162 2279.84C212.552 2277.8 209.95 2276.59 208.642 2278.21L188.79 2302.78C187.469 2304.41 188.633 2306.85 190.735 2306.85H205.546C207.375 2306.85 208.778 2308.47 208.515 2310.28Z" fill="white"/>
<path d="M208.515 2790.28L206.394 2804.85C206.102 2806.86 208.639 2807.98 209.922 2806.41L230.5 2781.21C232.1 2779.25 230.706 2776.31 228.177 2776.31H212.642C210.759 2776.31 209.342 2774.6 209.695 2772.75L212.162 2759.84C212.552 2757.8 209.95 2756.59 208.642 2758.21L188.79 2782.78C187.469 2784.41 188.633 2786.85 190.735 2786.85H205.546C207.375 2786.85 208.778 2788.47 208.515 2790.28Z" fill="white"/>
<path d="M48.5148 2150.28L46.3938 2164.85C46.1016 2166.86 48.6389 2167.98 49.922 2166.41L70.5005 2141.21C72.1005 2139.25 70.7064 2136.31 68.1768 2136.31H52.6421C50.7594 2136.31 49.342 2134.6 49.6955 2132.75L52.1616 2119.84C52.5524 2117.8 49.9497 2116.59 48.6416 2118.21L28.7901 2142.78C27.4689 2144.41 28.6326 2146.85 30.7346 2146.85H45.5461C47.3749 2146.85 48.7782 2148.47 48.5148 2150.28Z" fill="white"/>
<path d="M48.5148 2630.28L46.3938 2644.85C46.1016 2646.86 48.6389 2647.98 49.922 2646.41L70.5005 2621.21C72.1005 2619.25 70.7064 2616.31 68.1768 2616.31H52.6421C50.7594 2616.31 49.342 2614.6 49.6955 2612.75L52.1616 2599.84C52.5524 2597.8 49.9497 2596.59 48.6416 2598.21L28.7901 2622.78C27.4689 2624.41 28.6326 2626.85 30.7346 2626.85H45.5461C47.3749 2626.85 48.7782 2628.47 48.5148 2630.28Z" fill="white"/>
<path d="M368.515 2150.28L366.394 2164.85C366.102 2166.86 368.639 2167.98 369.922 2166.41L390.5 2141.21C392.1 2139.25 390.706 2136.31 388.177 2136.31H372.642C370.759 2136.31 369.342 2134.6 369.695 2132.75L372.162 2119.84C372.552 2117.8 369.95 2116.59 368.642 2118.21L348.79 2142.78C347.469 2144.41 348.633 2146.85 350.735 2146.85H365.546C367.375 2146.85 368.778 2148.47 368.515 2150.28Z" fill="white"/>
<path d="M368.515 2630.28L366.394 2644.85C366.102 2646.86 368.639 2647.98 369.922 2646.41L390.5 2621.21C392.1 2619.25 390.706 2616.31 388.177 2616.31H372.642C370.759 2616.31 369.342 2614.6 369.695 2612.75L372.162 2599.84C372.552 2597.8 369.95 2596.59 368.642 2598.21L348.79 2622.78C347.469 2624.41 348.633 2626.85 350.735 2626.85H365.546C367.375 2626.85 368.778 2628.47 368.515 2630.28Z" fill="white"/>
<circle cx="50" cy="1982" r="8" fill="white"/>
<circle cx="50" cy="2462" r="8" fill="white"/>
<circle cx="530" cy="1982" r="8" fill="white"/>
<circle cx="530" cy="2462" r="8" fill="white"/>
<circle cx="210" cy="2142" r="8" fill="white"/>
<circle cx="210" cy="2622" r="8" fill="white"/>
<circle cx="370" cy="2302" r="8" fill="white"/>
<circle cx="370" cy="2782" r="8" fill="white"/>
<circle cx="530" cy="2142" r="8" fill="white"/>
<circle cx="530" cy="2622" r="8" fill="white"/>
<rect x="670" y="1987" width="10" height="40" rx="3" transform="rotate(-90 670 1987)" fill="white"/>
<rect x="695" y="2002" width="10" height="40" rx="3" transform="rotate(180 695 2002)" fill="white"/>
<rect x="670" y="2467" width="10" height="40" rx="3" transform="rotate(-90 670 2467)" fill="white"/>
<rect x="695" y="2482" width="10" height="40" rx="3" transform="rotate(180 695 2482)" fill="white"/>
<rect x="1630" y="1987" width="10" height="40" rx="3" transform="rotate(-90 1630 1987)" fill="white"/>
<rect x="1655" y="2002" width="10" height="40" rx="3" transform="rotate(180 1655 2002)" fill="white"/>
<rect x="1630" y="2467" width="10" height="40" rx="3" transform="rotate(-90 1630 2467)" fill="white"/>
<rect x="1655" y="2482" width="10" height="40" rx="3" transform="rotate(180 1655 2482)" fill="white"/>
<rect x="990" y="2307" width="10" height="40" rx="3" transform="rotate(-90 990 2307)" fill="white"/>
<rect x="1015" y="2322" width="10" height="40" rx="3" transform="rotate(180 1015 2322)" fill="white"/>
<rect x="990" y="2787" width="10" height="40" rx="3" transform="rotate(-90 990 2787)" fill="white"/>
<rect x="1015" y="2802" width="10" height="40" rx="3" transform="rotate(180 1015 2802)" fill="white"/>
<rect x="1950" y="2307" width="10" height="40" rx="3" transform="rotate(-90 1950 2307)" fill="white"/>
<rect x="1975" y="2322" width="10" height="40" rx="3" transform="rotate(180 1975 2322)" fill="white"/>
<rect x="1950" y="2787" width="10" height="40" rx="3" transform="rotate(-90 1950 2787)" fill="white"/>
<rect x="1975" y="2802" width="10" height="40" rx="3" transform="rotate(180 1975 2802)" fill="white"/>
<rect x="1470" y="2307" width="10" height="40" rx="3" transform="rotate(-90 1470 2307)" fill="white"/>
<rect x="1495" y="2322" width="10" height="40" rx="3" transform="rotate(180 1495 2322)" fill="white"/>
<rect x="1470" y="2787" width="10" height="40" rx="3" transform="rotate(-90 1470 2787)" fill="white"/>
<rect x="1495" y="2802" width="10" height="40" rx="3" transform="rotate(180 1495 2802)" fill="white"/>
<rect x="2430" y="2307" width="10" height="40" rx="3" transform="rotate(-90 2430 2307)" fill="white"/>
<rect x="2455" y="2322" width="10" height="40" rx="3" transform="rotate(180 2455 2322)" fill="white"/>
<rect x="2430" y="2787" width="10" height="40" rx="3" transform="rotate(-90 2430 2787)" fill="white"/>
<rect x="2455" y="2802" width="10" height="40" rx="3" transform="rotate(180 2455 2802)" fill="white"/>
<rect x="1310" y="1987" width="10" height="40" rx="3" transform="rotate(-90 1310 1987)" fill="white"/>
<rect x="1335" y="2002" width="10" height="40" rx="3" transform="rotate(180 1335 2002)" fill="white"/>
<rect x="1310" y="2467" width="10" height="40" rx="3" transform="rotate(-90 1310 2467)" fill="white"/>
<rect x="1335" y="2482" width="10" height="40" rx="3" transform="rotate(180 1335 2482)" fill="white"/>
<rect x="2270" y="1987" width="10" height="40" rx="3" transform="rotate(-90 2270 1987)" fill="white"/>
<rect x="2295" y="2002" width="10" height="40" rx="3" transform="rotate(180 2295 2002)" fill="white"/>
<rect x="2270" y="2467" width="10" height="40" rx="3" transform="rotate(-90 2270 2467)" fill="white"/>
<rect x="2295" y="2482" width="10" height="40" rx="3" transform="rotate(180 2295 2482)" fill="white"/>
<path d="M848.515 1990.28L846.394 2004.85C846.102 2006.86 848.639 2007.98 849.922 2006.41L870.5 1981.21C872.1 1979.25 870.706 1976.31 868.177 1976.31H852.642C850.759 1976.31 849.342 1974.6 849.695 1972.75L852.162 1959.84C852.552 1957.8 849.95 1956.59 848.642 1958.21L828.79 1982.78C827.469 1984.41 828.633 1986.85 830.735 1986.85H845.546C847.375 1986.85 848.778 1988.47 848.515 1990.28Z" fill="white"/>
<path d="M848.515 2470.28L846.394 2484.85C846.102 2486.86 848.639 2487.98 849.922 2486.41L870.5 2461.21C872.1 2459.25 870.706 2456.31 868.177 2456.31H852.642C850.759 2456.31 849.342 2454.6 849.695 2452.75L852.162 2439.84C852.552 2437.8 849.95 2436.59 848.642 2438.21L828.79 2462.78C827.469 2464.41 828.633 2466.85 830.735 2466.85H845.546C847.375 2466.85 848.778 2468.47 848.515 2470.28Z" fill="white"/>
<path d="M1808.51 1990.28L1806.39 2004.85C1806.1 2006.86 1808.64 2007.98 1809.92 2006.41L1830.5 1981.21C1832.1 1979.25 1830.71 1976.31 1828.18 1976.31H1812.64C1810.76 1976.31 1809.34 1974.6 1809.7 1972.75L1812.16 1959.84C1812.55 1957.8 1809.95 1956.59 1808.64 1958.21L1788.79 1982.78C1787.47 1984.41 1788.63 1986.85 1790.73 1986.85H1805.55C1807.37 1986.85 1808.78 1988.47 1808.51 1990.28Z" fill="white"/>
<path d="M1808.51 2470.28L1806.39 2484.85C1806.1 2486.86 1808.64 2487.98 1809.92 2486.41L1830.5 2461.21C1832.1 2459.25 1830.71 2456.31 1828.18 2456.31H1812.64C1810.76 2456.31 1809.34 2454.6 1809.7 2452.75L1812.16 2439.84C1812.55 2437.8 1809.95 2436.59 1808.64 2438.21L1788.79 2462.78C1787.47 2464.41 1788.63 2466.85 1790.73 2466.85H1805.55C1807.37 2466.85 1808.78 2468.47 1808.51 2470.28Z" fill="white"/>
<path d="M848.515 2310.28L846.394 2324.85C846.102 2326.86 848.639 2327.98 849.922 2326.41L870.5 2301.21C872.1 2299.25 870.706 2296.31 868.177 2296.31H852.642C850.759 2296.31 849.342 2294.6 849.695 2292.75L852.162 2279.84C852.552 2277.8 849.95 2276.59 848.642 2278.21L828.79 2302.78C827.469 2304.41 828.633 2306.85 830.735 2306.85H845.546C847.375 2306.85 848.778 2308.47 848.515 2310.28Z" fill="white"/>
<path d="M848.515 2790.28L846.394 2804.85C846.102 2806.86 848.639 2807.98 849.922 2806.41L870.5 2781.21C872.1 2779.25 870.706 2776.31 868.177 2776.31H852.642C850.759 2776.31 849.342 2774.6 849.695 2772.75L852.162 2759.84C852.552 2757.8 849.95 2756.59 848.642 2758.21L828.79 2782.78C827.469 2784.41 828.633 2786.85 830.735 2786.85H845.546C847.375 2786.85 848.778 2788.47 848.515 2790.28Z" fill="white"/>
<path d="M1808.51 2310.28L1806.39 2324.85C1806.1 2326.86 1808.64 2327.98 1809.92 2326.41L1830.5 2301.21C1832.1 2299.25 1830.71 2296.31 1828.18 2296.31H1812.64C1810.76 2296.31 1809.34 2294.6 1809.7 2292.75L1812.16 2279.84C1812.55 2277.8 1809.95 2276.59 1808.64 2278.21L1788.79 2302.78C1787.47 2304.41 1788.63 2306.85 1790.73 2306.85H1805.55C1807.37 2306.85 1808.78 2308.47 1808.51 2310.28Z" fill="white"/>
<path d="M1808.51 2790.28L1806.39 2804.85C1806.1 2806.86 1808.64 2807.98 1809.92 2806.41L1830.5 2781.21C1832.1 2779.25 1830.71 2776.31 1828.18 2776.31H1812.64C1810.76 2776.31 1809.34 2774.6 1809.7 2772.75L1812.16 2759.84C1812.55 2757.8 1809.95 2756.59 1808.64 2758.21L1788.79 2782.78C1787.47 2784.41 1788.63 2786.85 1790.73 2786.85H1805.55C1807.37 2786.85 1808.78 2788.47 1808.51 2790.28Z" fill="white"/>
<path d="M1168.51 1990.28L1166.39 2004.85C1166.1 2006.86 1168.64 2007.98 1169.92 2006.41L1190.5 1981.21C1192.1 1979.25 1190.71 1976.31 1188.18 1976.31H1172.64C1170.76 1976.31 1169.34 1974.6 1169.7 1972.75L1172.16 1959.84C1172.55 1957.8 1169.95 1956.59 1168.64 1958.21L1148.79 1982.78C1147.47 1984.41 1148.63 1986.85 1150.73 1986.85H1165.55C1167.37 1986.85 1168.78 1988.47 1168.51 1990.28Z" fill="white"/>
<path d="M1168.51 2470.28L1166.39 2484.85C1166.1 2486.86 1168.64 2487.98 1169.92 2486.41L1190.5 2461.21C1192.1 2459.25 1190.71 2456.31 1188.18 2456.31H1172.64C1170.76 2456.31 1169.34 2454.6 1169.7 2452.75L1172.16 2439.84C1172.55 2437.8 1169.95 2436.59 1168.64 2438.21L1148.79 2462.78C1147.47 2464.41 1148.63 2466.85 1150.73 2466.85H1165.55C1167.37 2466.85 1168.78 2468.47 1168.51 2470.28Z" fill="white"/>
<path d="M2128.51 1990.28L2126.39 2004.85C2126.1 2006.86 2128.64 2007.98 2129.92 2006.41L2150.5 1981.21C2152.1 1979.25 2150.71 1976.31 2148.18 1976.31H2132.64C2130.76 1976.31 2129.34 1974.6 2129.7 1972.75L2132.16 1959.84C2132.55 1957.8 2129.95 1956.59 2128.64 1958.21L2108.79 1982.78C2107.47 1984.41 2108.63 1986.85 2110.73 1986.85H2125.55C2127.37 1986.85 2128.78 1988.47 2128.51 1990.28Z" fill="white"/>
<path d="M2128.51 2470.28L2126.39 2484.85C2126.1 2486.86 2128.64 2487.98 2129.92 2486.41L2150.5 2461.21C2152.1 2459.25 2150.71 2456.31 2148.18 2456.31H2132.64C2130.76 2456.31 2129.34 2454.6 2129.7 2452.75L2132.16 2439.84C2132.55 2437.8 2129.95 2436.59 2128.64 2438.21L2108.79 2462.78C2107.47 2464.41 2108.63 2466.85 2110.73 2466.85H2125.55C2127.37 2466.85 2128.78 2468.47 2128.51 2470.28Z" fill="white"/>
<path d="M1168.51 2310.28L1166.39 2324.85C1166.1 2326.86 1168.64 2327.98 1169.92 2326.41L1190.5 2301.21C1192.1 2299.25 1190.71 2296.31 1188.18 2296.31H1172.64C1170.76 2296.31 1169.34 2294.6 1169.7 2292.75L1172.16 2279.84C1172.55 2277.8 1169.95 2276.59 1168.64 2278.21L1148.79 2302.78C1147.47 2304.41 1148.63 2306.85 1150.73 2306.85H1165.55C1167.37 2306.85 1168.78 2308.47 1168.51 2310.28Z" fill="white"/>
<path d="M1168.51 2790.28L1166.39 2804.85C1166.1 2806.86 1168.64 2807.98 1169.92 2806.41L1190.5 2781.21C1192.1 2779.25 1190.71 2776.31 1188.18 2776.31H1172.64C1170.76 2776.31 1169.34 2774.6 1169.7 2772.75L1172.16 2759.84C1172.55 2757.8 1169.95 2756.59 1168.64 2758.21L1148.79 2782.78C1147.47 2784.41 1148.63 2786.85 1150.73 2786.85H1165.55C1167.37 2786.85 1168.78 2788.47 1168.51 2790.28Z" fill="white"/>
<path d="M2128.51 2310.28L2126.39 2324.85C2126.1 2326.86 2128.64 2327.98 2129.92 2326.41L2150.5 2301.21C2152.1 2299.25 2150.71 2296.31 2148.18 2296.31H2132.64C2130.76 2296.31 2129.34 2294.6 2129.7 2292.75L2132.16 2279.84C2132.55 2277.8 2129.95 2276.59 2128.64 2278.21L2108.79 2302.78C2107.47 2304.41 2108.63 2306.85 2110.73 2306.85H2125.55C2127.37 2306.85 2128.78 2308.47 2128.51 2310.28Z" fill="white"/>
<path d="M2128.51 2790.28L2126.39 2804.85C2126.1 2806.86 2128.64 2807.98 2129.92 2806.41L2150.5 2781.21C2152.1 2779.25 2150.71 2776.31 2148.18 2776.31H2132.64C2130.76 2776.31 2129.34 2774.6 2129.7 2772.75L2132.16 2759.84C2132.55 2757.8 2129.95 2756.59 2128.64 2758.21L2108.79 2782.78C2107.47 2784.41 2108.63 2786.85 2110.73 2786.85H2125.55C2127.37 2786.85 2128.78 2788.47 2128.51 2790.28Z" fill="white"/>
<path d="M688.515 2150.28L686.394 2164.85C686.102 2166.86 688.639 2167.98 689.922 2166.41L710.5 2141.21C712.1 2139.25 710.706 2136.31 708.177 2136.31H692.642C690.759 2136.31 689.342 2134.6 689.695 2132.75L692.162 2119.84C692.552 2117.8 689.95 2116.59 688.642 2118.21L668.79 2142.78C667.469 2144.41 668.633 2146.85 670.735 2146.85H685.546C687.375 2146.85 688.778 2148.47 688.515 2150.28Z" fill="white"/>
<path d="M688.515 2630.28L686.394 2644.85C686.102 2646.86 688.639 2647.98 689.922 2646.41L710.5 2621.21C712.1 2619.25 710.706 2616.31 708.177 2616.31H692.642C690.759 2616.31 689.342 2614.6 689.695 2612.75L692.162 2599.84C692.552 2597.8 689.95 2596.59 688.642 2598.21L668.79 2622.78C667.469 2624.41 668.633 2626.85 670.735 2626.85H685.546C687.375 2626.85 688.778 2628.47 688.515 2630.28Z" fill="white"/>
<path d="M1648.51 2150.28L1646.39 2164.85C1646.1 2166.86 1648.64 2167.98 1649.92 2166.41L1670.5 2141.21C1672.1 2139.25 1670.71 2136.31 1668.18 2136.31H1652.64C1650.76 2136.31 1649.34 2134.6 1649.7 2132.75L1652.16 2119.84C1652.55 2117.8 1649.95 2116.59 1648.64 2118.21L1628.79 2142.78C1627.47 2144.41 1628.63 2146.85 1630.73 2146.85H1645.55C1647.37 2146.85 1648.78 2148.47 1648.51 2150.28Z" fill="white"/>
<path d="M1648.51 2630.28L1646.39 2644.85C1646.1 2646.86 1648.64 2647.98 1649.92 2646.41L1670.5 2621.21C1672.1 2619.25 1670.71 2616.31 1668.18 2616.31H1652.64C1650.76 2616.31 1649.34 2614.6 1649.7 2612.75L1652.16 2599.84C1652.55 2597.8 1649.95 2596.59 1648.64 2598.21L1628.79 2622.78C1627.47 2624.41 1628.63 2626.85 1630.73 2626.85H1645.55C1647.37 2626.85 1648.78 2628.47 1648.51 2630.28Z" fill="white"/>
<path d="M1008.51 2150.28L1006.39 2164.85C1006.1 2166.86 1008.64 2167.98 1009.92 2166.41L1030.5 2141.21C1032.1 2139.25 1030.71 2136.31 1028.18 2136.31H1012.64C1010.76 2136.31 1009.34 2134.6 1009.7 2132.75L1012.16 2119.84C1012.55 2117.8 1009.95 2116.59 1008.64 2118.21L988.79 2142.78C987.469 2144.41 988.633 2146.85 990.735 2146.85H1005.55C1007.37 2146.85 1008.78 2148.47 1008.51 2150.28Z" fill="white"/>
<path d="M1008.51 2630.28L1006.39 2644.85C1006.1 2646.86 1008.64 2647.98 1009.92 2646.41L1030.5 2621.21C1032.1 2619.25 1030.71 2616.31 1028.18 2616.31H1012.64C1010.76 2616.31 1009.34 2614.6 1009.7 2612.75L1012.16 2599.84C1012.55 2597.8 1009.95 2596.59 1008.64 2598.21L988.79 2622.78C987.469 2624.41 988.633 2626.85 990.735 2626.85H1005.55C1007.37 2626.85 1008.78 2628.47 1008.51 2630.28Z" fill="white"/>
<path d="M1968.51 2150.28L1966.39 2164.85C1966.1 2166.86 1968.64 2167.98 1969.92 2166.41L1990.5 2141.21C1992.1 2139.25 1990.71 2136.31 1988.18 2136.31H1972.64C1970.76 2136.31 1969.34 2134.6 1969.7 2132.75L1972.16 2119.84C1972.55 2117.8 1969.95 2116.59 1968.64 2118.21L1948.79 2142.78C1947.47 2144.41 1948.63 2146.85 1950.73 2146.85H1965.55C1967.37 2146.85 1968.78 2148.47 1968.51 2150.28Z" fill="white"/>
<path d="M1968.51 2630.28L1966.39 2644.85C1966.1 2646.86 1968.64 2647.98 1969.92 2646.41L1990.5 2621.21C1992.1 2619.25 1990.71 2616.31 1988.18 2616.31H1972.64C1970.76 2616.31 1969.34 2614.6 1969.7 2612.75L1972.16 2599.84C1972.55 2597.8 1969.95 2596.59 1968.64 2598.21L1948.79 2622.78C1947.47 2624.41 1948.63 2626.85 1950.73 2626.85H1965.55C1967.37 2626.85 1968.78 2628.47 1968.51 2630.28Z" fill="white"/>
<path d="M1328.51 2150.28L1326.39 2164.85C1326.1 2166.86 1328.64 2167.98 1329.92 2166.41L1350.5 2141.21C1352.1 2139.25 1350.71 2136.31 1348.18 2136.31H1332.64C1330.76 2136.31 1329.34 2134.6 1329.7 2132.75L1332.16 2119.84C1332.55 2117.8 1329.95 2116.59 1328.64 2118.21L1308.79 2142.78C1307.47 2144.41 1308.63 2146.85 1310.73 2146.85H1325.55C1327.37 2146.85 1328.78 2148.47 1328.51 2150.28Z" fill="white"/>
<path d="M1328.51 2630.28L1326.39 2644.85C1326.1 2646.86 1328.64 2647.98 1329.92 2646.41L1350.5 2621.21C1352.1 2619.25 1350.71 2616.31 1348.18 2616.31H1332.64C1330.76 2616.31 1329.34 2614.6 1329.7 2612.75L1332.16 2599.84C1332.55 2597.8 1329.95 2596.59 1328.64 2598.21L1308.79 2622.78C1307.47 2624.41 1308.63 2626.85 1310.73 2626.85H1325.55C1327.37 2626.85 1328.78 2628.47 1328.51 2630.28Z" fill="white"/>
<path d="M2288.51 2150.28L2286.39 2164.85C2286.1 2166.86 2288.64 2167.98 2289.92 2166.41L2310.5 2141.21C2312.1 2139.25 2310.71 2136.31 2308.18 2136.31H2292.64C2290.76 2136.31 2289.34 2134.6 2289.7 2132.75L2292.16 2119.84C2292.55 2117.8 2289.95 2116.59 2288.64 2118.21L2268.79 2142.78C2267.47 2144.41 2268.63 2146.85 2270.73 2146.85H2285.55C2287.37 2146.85 2288.78 2148.47 2288.51 2150.28Z" fill="white"/>
<path d="M2288.51 2630.28L2286.39 2644.85C2286.1 2646.86 2288.64 2647.98 2289.92 2646.41L2310.5 2621.21C2312.1 2619.25 2310.71 2616.31 2308.18 2616.31H2292.64C2290.76 2616.31 2289.34 2614.6 2289.7 2612.75L2292.16 2599.84C2292.55 2597.8 2289.95 2596.59 2288.64 2598.21L2268.79 2622.78C2267.47 2624.41 2268.63 2626.85 2270.73 2626.85H2285.55C2287.37 2626.85 2288.78 2628.47 2288.51 2630.28Z" fill="white"/>
<circle cx="1010" cy="1982" r="8" fill="white"/>
<circle cx="1010" cy="2462" r="8" fill="white"/>
<circle cx="1970" cy="1982" r="8" fill="white"/>
<circle cx="1970" cy="2462" r="8" fill="white"/>
<circle cx="1490" cy="1982" r="8" fill="white"/>
<circle cx="1490" cy="2462" r="8" fill="white"/>
<circle cx="2450" cy="1982" r="8" fill="white"/>
<circle cx="2450" cy="2462" r="8" fill="white"/>
<circle cx="850" cy="2142" r="8" fill="white"/>
<circle cx="850" cy="2622" r="8" fill="white"/>
<circle cx="1810" cy="2142" r="8" fill="white"/>
<circle cx="1810" cy="2622" r="8" fill="white"/>
<circle cx="1170" cy="2142" r="8" fill="white"/>
<circle cx="1170" cy="2622" r="8" fill="white"/>
<circle cx="2130" cy="2142" r="8" fill="white"/>
<circle cx="2130" cy="2622" r="8" fill="white"/>
<circle cx="1330" cy="2302" r="8" fill="white"/>
<circle cx="1330" cy="2782" r="8" fill="white"/>
<circle cx="2290" cy="2302" r="8" fill="white"/>
<circle cx="2290" cy="2782" r="8" fill="white"/>
<circle cx="1490" cy="2142" r="8" fill="white"/>
<circle cx="1490" cy="2622" r="8" fill="white"/>
<circle cx="2450" cy="2142" r="8" fill="white"/>
<circle cx="2450" cy="2622" r="8" fill="white"/>
<circle cx="690" cy="2302" r="8" fill="white"/>
<circle cx="690" cy="2782" r="8" fill="white"/>
<circle cx="1650" cy="2302" r="8" fill="white"/>
<circle cx="1650" cy="2782" r="8" fill="white"/>
</svg>
