<svg width="18" height="20" viewBox="0 0 18 20" fill="none" xmlns="http://www.w3.org/2000/svg">
    <path fill-rule="evenodd" clip-rule="evenodd" d="M2.00434 3.7C2.02003 3.73584 2.07465 3.82748 2.25239 3.96931C2.53197 4.1924 2.99806 4.4373 3.66292 4.6617C4.9825 5.10705 6.86948 5.4 9 5.4C11.1305 5.4 13.0175 5.10705 14.3371 4.6617C15.0019 4.4373 15.468 4.1924 15.7476 3.96931C15.9253 3.82748 15.98 3.73584 15.9957 3.7C15.98 3.66416 15.9253 3.57252 15.7476 3.43069C15.468 3.2076 15.0019 2.96269 14.3371 2.7383C13.0175 2.29295 11.1305 2 9 2C6.86948 2 4.9825 2.29295 3.66292 2.7383C2.99806 2.96269 2.53197 3.2076 2.25239 3.43069C2.07465 3.57252 2.02003 3.66416 2.00434 3.7ZM16 6.14381C15.6817 6.29774 15.3374 6.43493 14.9766 6.55668C13.4008 7.08853 11.2878 7.4 9 7.4C6.71224 7.4 4.59923 7.08853 3.02337 6.55668C2.66262 6.43493 2.3183 6.29774 2 6.14381V9.99043C2.00727 10.0139 2.04929 10.1105 2.2508 10.2722C2.52787 10.4945 2.99081 10.7389 3.65355 10.9629C4.96901 11.4076 6.85558 11.7 9 11.7C11.1444 11.7 13.031 11.4076 14.3464 10.9629C15.0092 10.7389 15.4721 10.4945 15.7492 10.2722C15.9507 10.1105 15.9927 10.0139 16 9.99043V6.14381ZM16 12.4485C15.6847 12.601 15.344 12.7369 14.9869 12.8576C13.4135 13.3894 11.3 13.7 9 13.7C6.69997 13.7 4.58654 13.3894 3.01311 12.8576C2.65605 12.7369 2.31526 12.601 2 12.4485V16.2904C2.00727 16.3139 2.04929 16.4105 2.2508 16.5722C2.52787 16.7945 2.99081 17.0389 3.65355 17.2629C4.96901 17.7076 6.85558 18 9 18C11.1444 18 13.031 17.7076 14.3464 17.2629C15.0092 17.0389 15.4721 16.7945 15.7492 16.5722C15.9507 16.4105 15.9927 16.3139 16 16.2904V12.4485ZM18 16.3C18 17.1025 17.5206 17.7151 17.0008 18.1321C16.4723 18.5562 15.7686 18.8934 14.9869 19.1576C13.4135 19.6894 11.3 20 9 20C6.69997 20 4.58654 19.6894 3.01311 19.1576C2.23141 18.8934 1.52769 18.5562 0.999203 18.1321C0.479391 17.7151 0 17.1025 0 16.3V3.7C0 2.89484 0.48482 2.28243 1.00497 1.86738C1.53503 1.44442 2.24051 1.10753 3.02337 0.843319C4.59923 0.311467 6.71224 0 9 0C11.2878 0 13.4008 0.311467 14.9766 0.843319C15.7595 1.10753 16.465 1.44442 16.995 1.86738C17.5152 2.28243 18 2.89484 18 3.7V16.3Z" fill="#000000"/>
</svg>